<?xml version="1.0" encoding="UTF-8"?>
<svg id="logo_svg" xmlns="http://www.w3.org/2000/svg" xmlns:xlink="http://www.w3.org/1999/xlink" viewBox="0 0 104.02 130.5">
  <defs>
    <style>
      .sclab-logo-1, .sclab-logo-2 {
        fill: none;
        stroke-linecap: round;
        stroke-linejoin: round;
        stroke-width: 15px;
      }
    </style>
    <linearGradient id="gradientTop" x1="52.27" y1="92" x2="52.27" y2="0" gradientUnits="userSpaceOnUse">
      <stop offset="0" stop-color="#67b7a3"/>
      <stop offset="1" stop-color="#037dc2"/>
    </linearGradient>
    <linearGradient id="gradientBottom" x1="51.51" y1="130.5" x2="51.51" y2="38.7" gradientUnits="userSpaceOnUse">
      <stop offset="0" stop-color="#88c65e"/>
      <stop offset="1" stop-color="#4495b5"/>
    </linearGradient>
  </defs>
  <path id="bottom" class="sclab-logo-2" style="stroke: url(#gradientBottom);" d="M7.5,103.05c13.84,6.32,31.68,13.63,45.52,19.95,14.5-6.32,28-12.63,42.5-18.95,0-12.63,0-25.27,0-37.9-14.17-6.65-29.34-13.3-43.51-19.95-14.83,6.65-27.66,13.3-42.49,19.95"/>
  <path id="top" class="sclab-logo-1" style="stroke: url(#gradientTop);" d="M95.52,66.5c-14.08,6.33-29.17,11.67-43.25,18-14.75-6.33-29.5-11.67-44.25-18V27.5c14.41-6.67,28.83-13.33,43.24-20,15.09,6.67,29.17,13.33,44.26,20"/>
</svg>